<svg width="80" height="80" viewBox="0 0 80 80" fill="none" xmlns="http://www.w3.org/2000/svg">
<path d="M40 80C32.0888 80 24.3552 77.6541 17.7772 73.2588C11.1992 68.8635 6.07234 62.6164 3.04484 55.3074C0.0173312 47.9983 -0.774802 39.9556 0.768607 32.1964C2.31202 24.4372 6.12165 17.3098 11.7157 11.7157C17.3098 6.12165 24.4372 2.31202 32.1964 0.768607C39.9556 -0.774802 47.9983 0.0173312 55.3074 3.04484C62.6164 6.07234 68.8635 11.1992 73.2588 17.7772C77.6541 24.3552 80 32.0888 80 40C80 50.6087 75.7857 60.7828 68.2843 68.2843C60.7828 75.7857 50.6087 80 40 80ZM40 5.00002C33.0777 5.00002 26.3108 7.05273 20.5551 10.8986C14.7993 14.7444 10.3133 20.2107 7.66423 26.6061C5.01517 33.0015 4.32205 40.0388 5.67253 46.8282C7.02302 53.6175 10.3564 59.8539 15.2513 64.7488C20.1461 69.6436 26.3825 72.977 33.1719 74.3275C39.9612 75.678 46.9985 74.9849 53.3939 72.3358C59.7894 69.6867 65.2556 65.2007 69.1015 59.445C72.9473 53.6893 75 46.9224 75 40C75 30.7174 71.3125 21.8151 64.7488 15.2513C58.185 8.68751 49.2826 5.00002 40 5.00002Z" fill="#F6F6F6"/>
<path d="M37.5 32.5H32.5C32.5 31.1739 31.9732 29.9021 31.0355 28.9645C30.0979 28.0268 28.8261 27.5 27.5 27.5C26.1739 27.5 24.9021 28.0268 23.9645 28.9645C23.0268 29.9021 22.5 31.1739 22.5 32.5H17.5C17.5 29.8478 18.5536 27.3043 20.4289 25.4289C22.3043 23.5536 24.8478 22.5 27.5 22.5C30.1522 22.5 32.6957 23.5536 34.5711 25.4289C36.4464 27.3043 37.5 29.8478 37.5 32.5Z" fill="#F6F6F6"/>
<path d="M62.5 32.5H57.5C57.5 31.1739 56.9732 29.9021 56.0355 28.9645C55.0979 28.0268 53.8261 27.5 52.5 27.5C51.1739 27.5 49.9021 28.0268 48.9645 28.9645C48.0268 29.9021 47.5 31.1739 47.5 32.5H42.5C42.5 29.8478 43.5536 27.3043 45.4289 25.4289C47.3043 23.5536 49.8478 22.5 52.5 22.5C55.1522 22.5 57.6957 23.5536 59.5711 25.4289C61.4464 27.3043 62.5 29.8478 62.5 32.5Z" fill="#F6F6F6"/>
<path d="M37.5 57.5H32.5C32.5 52.8587 34.3437 48.4075 37.6256 45.1256C40.9075 41.8437 45.3587 40 50 40V45C46.6848 45 43.5054 46.317 41.1612 48.6612C38.817 51.0054 37.5 54.1848 37.5 57.5Z" fill="#F6F6F6"/>
</svg>
