<svg width="16" height="18" viewBox="0 0 16 18" fill="none" xmlns="http://www.w3.org/2000/svg">
<path d="M15.5 0.642857V17.3571C15.5 17.5276 15.4282 17.6912 15.3003 17.8117C15.1724 17.9323 14.999 18 14.8182 18H1.18182C1.00099 18 0.827566 17.9323 0.6997 17.8117C0.571834 17.6912 0.5 17.5276 0.5 17.3571V16.0714H1.86364V16.7143H14.1364V1.28571H1.86364V3.21429H0.5V0.642857C0.5 0.472361 0.571834 0.308848 0.6997 0.188288C0.827566 0.0677294 1.00099 0 1.18182 0H14.8182C14.999 0 15.1724 0.0677294 15.3003 0.188288C15.4282 0.308848 15.5 0.472361 15.5 0.642857ZM5.47045 11.7579L6.43864 12.6707L9.84773 9.45643C9.91163 9.39667 9.96236 9.32557 9.99697 9.24723C10.0316 9.16889 10.0494 9.08486 10.0494 9C10.0494 8.91514 10.0316 8.83111 9.99697 8.75277C9.96236 8.67443 9.91163 8.60333 9.84773 8.54357L6.43864 5.32929L5.47045 6.24214L7.72045 8.35714H0.5V9.64286H7.72045L5.47045 11.7579Z" fill="#F6F6F6"/>
</svg>
