<svg width="82" height="82" viewBox="0 0 82 82" fill="none" xmlns="http://www.w3.org/2000/svg">
<path d="M41.0634 81.5798C39.9289 81.5798 38.7944 81.5378 37.6599 81.4537C26.8611 80.5712 17.0708 75.5284 10.0537 67.2497C3.03663 58.9711 -0.324852 48.4652 0.599555 37.6652C1.48194 26.8651 6.52413 17.0738 14.8018 10.0558C23.0794 3.03791 33.5841 -0.323967 44.3829 0.60055C55.1816 1.48304 64.972 6.52575 71.9891 14.8044C79.0062 23.083 82.3677 33.5889 81.4432 44.389C80.7709 52.2894 77.8717 59.7276 73.0395 65.947C72.6614 66.4093 71.9891 66.4933 71.4849 66.1571C71.0227 65.7789 70.9386 65.1065 71.2747 64.6022C75.8547 58.719 78.586 51.701 79.2163 44.2208C80.0566 34.0091 76.8632 24.0916 70.2663 16.2752C63.6274 8.45886 54.3833 3.66826 44.1728 2.82779C33.9623 1.98732 24.0459 5.181 16.2305 11.7787C8.41501 18.4184 3.62491 27.6637 2.78454 37.8754C1.94417 48.0871 5.13753 58.0046 11.7344 65.821C18.3734 73.6373 27.6175 78.4279 37.828 79.2684C47.7444 80.1089 57.4926 77.0832 65.224 70.7797C65.6862 70.4015 66.4005 70.4856 66.7787 70.9478C67.1569 71.4101 67.0729 72.1245 66.6107 72.5027C59.3415 78.428 50.3495 81.6218 41.0634 81.6218V81.5798Z" fill="white"/>
<path d="M41.063 82C39.9285 82 38.752 81.958 37.6175 81.8739C26.6927 80.9494 16.8183 75.8645 9.71717 67.5018C2.65805 59.1392 -0.745442 48.5493 0.136947 37.6232C1.06135 26.6971 6.14559 16.8215 14.5073 9.71954C22.869 2.61757 33.4997 -0.744305 44.3825 0.138189C55.3073 1.06271 65.1816 6.1476 72.2827 14.5103C79.3418 22.873 82.7454 33.4628 81.8631 44.3889C81.1908 52.3734 78.2494 59.8956 73.3752 66.1571C72.871 66.8294 71.9045 66.9135 71.2322 66.4092C70.5599 65.9049 70.4339 64.9385 70.9801 64.2661C75.5181 58.4668 78.2074 51.4909 78.8377 44.0947C79.6781 34.0091 76.5266 24.1756 69.9717 16.4433C63.4168 8.711 54.2568 4.00435 44.1304 3.16389C34.0459 2.32342 24.2136 5.47512 16.4822 12.0308C8.75074 18.5864 4.04465 27.7477 3.20428 37.8753C2.36391 47.961 5.5153 57.7944 12.0702 65.5267C18.6251 73.2591 27.7851 77.9657 37.9116 78.8062C47.7439 79.6466 57.3662 76.663 65.0136 70.4015C65.6439 69.8552 66.6103 69.9812 67.1566 70.6115C67.7028 71.2419 67.5767 72.2085 66.9464 72.7548C59.6772 78.6801 50.4752 81.9579 41.105 81.9579L41.063 82ZM40.9369 0.852644C31.4827 0.852644 22.4068 4.17241 15.0955 10.3499C6.90192 17.2837 1.90169 26.9912 1.0193 37.6651C0.136911 48.3391 3.45642 58.761 10.3895 66.9136C17.3225 75.1082 27.0288 80.1089 37.7015 80.9913C48.0381 81.8318 58.3746 78.6381 66.3581 72.1245C66.6523 71.8723 66.6943 71.452 66.4422 71.1579C66.1901 70.8637 65.7699 70.8217 65.4758 71.0739C57.6603 77.4614 47.8279 80.4872 37.7855 79.6467C27.449 78.8062 18.0788 73.9735 11.3979 66.0731C4.71694 58.1726 1.48153 48.129 2.36392 37.7912C3.20429 27.4534 8.03641 18.0822 15.9359 11.4005C23.8354 4.71872 33.8778 1.48294 44.2144 2.36543C54.5509 3.2059 63.921 8.03865 70.602 15.9391C77.2829 23.8395 80.5183 33.883 79.6359 44.2208C79.0057 51.743 76.2326 58.8871 71.6105 64.8124C71.3584 65.1066 71.4424 65.5267 71.7366 65.7789C72.0307 66.031 72.4508 65.947 72.7029 65.6528C77.493 59.5174 80.3503 52.1213 81.0226 44.3049C81.905 33.631 78.5855 23.209 71.6525 15.0565C64.7194 6.8619 55.0132 1.8612 44.3405 0.97871C43.206 0.894663 42.0714 0.852644 40.9369 0.852644Z" fill="white"/>
<path d="M41.0213 50.6087C40.7692 50.6087 40.4751 50.6087 40.223 50.6087C34.9286 50.1884 31.0209 45.5238 31.4411 40.2288C31.8613 34.9339 36.5253 30.9837 41.8197 31.446C47.114 31.8662 51.0217 36.5308 50.6015 41.8258C50.1814 46.8266 45.9795 50.6506 41.0213 50.6506V50.6087ZM40.9793 33.6311C39.2145 33.6311 37.5758 34.2615 36.2312 35.3962C34.7185 36.6569 33.7942 38.4638 33.6261 40.4389C33.2899 44.5152 36.3153 48.0872 40.3911 48.4234C42.3659 48.5914 44.2568 47.9611 45.7694 46.7004C47.2821 45.4397 48.2065 43.6327 48.3746 41.6576C48.7107 37.5814 45.6854 34.0094 41.6096 33.6732C41.3995 33.6732 41.1894 33.6732 40.9793 33.6732V33.6311Z" fill="#1F68F2"/>
<path d="M41.0202 51.0292C40.7261 51.0292 40.474 51.0292 40.1799 51.0292C34.6754 50.567 30.5576 45.7343 31.0198 40.2292C31.2299 37.5397 32.4905 35.1443 34.5494 33.3793C36.6083 31.6564 39.1714 30.858 41.8186 31.0681C44.4657 31.2782 46.9028 32.5389 48.6256 34.598C50.3483 36.6572 51.1887 39.2206 50.9786 41.9101C50.5584 47.079 46.1885 51.1132 41.0202 51.1132V51.0292ZM40.9782 31.8245C38.8353 31.8245 36.7763 32.5808 35.0956 33.9676C33.2047 35.5645 32.0703 37.7918 31.8602 40.2292C31.44 45.272 35.2217 49.7264 40.2639 50.1467C45.3061 50.5669 49.7601 46.7428 50.1803 41.742C50.3904 39.3046 49.634 36.9093 48.0373 35.0602C46.4406 33.1692 44.2137 32.0346 41.7766 31.8245C41.5245 31.8245 41.2303 31.8245 40.9782 31.8245ZM41.0202 48.8439C40.8101 48.8439 40.6 48.8439 40.3479 48.8439C36.062 48.4657 32.8686 44.7256 33.2048 40.3972C33.3728 38.338 34.3393 36.4471 35.936 35.1023C37.5327 33.7576 39.5496 33.0852 41.6085 33.2953C45.8944 33.6735 49.0878 37.4135 48.7516 41.742C48.5835 43.8011 47.6171 45.6922 46.0204 47.079C44.5918 48.2977 42.827 48.9281 40.9782 48.9281L41.0202 48.8439ZM40.9782 34.0517C39.3395 34.0517 37.7428 34.64 36.4822 35.6906C35.0536 36.9092 34.1712 38.5902 34.0451 40.4392C33.709 44.2634 36.6083 47.6673 40.432 47.9615C42.2808 48.1296 44.0876 47.5412 45.5162 46.3225C46.9449 45.1038 47.8273 43.423 47.9533 41.574C48.2895 37.7498 45.3902 34.3459 41.5665 34.0517C41.3564 34.0517 41.1883 34.0517 40.9782 34.0517Z" fill="#1F68F2"/>
<path d="M23.2904 40.6495C23.2904 40.6495 23.2484 40.6495 23.2064 40.6495C22.6181 40.6075 22.1559 40.0612 22.198 39.4729C22.6182 34.4301 24.9712 29.8914 28.8369 26.6136C32.7026 23.3357 37.5768 21.7809 42.619 22.2012C43.2072 22.2432 43.6694 22.7895 43.6274 23.3778C43.5854 23.9661 43.0391 24.4704 42.4509 24.3863C33.3328 23.6719 25.1813 30.4798 24.4249 39.6409C24.3829 40.2292 23.8787 40.6495 23.3325 40.6495H23.2904Z" fill="white"/>
<path d="M23.2911 41.0692H23.165C22.7869 41.0692 22.4087 40.8592 22.1566 40.523C21.9044 40.2288 21.7784 39.8085 21.8205 39.4303C22.2407 34.3034 24.6357 29.6388 28.5855 26.2769C32.5352 22.9151 37.5354 21.3181 42.6616 21.7804C43.502 21.8644 44.1323 22.5789 44.0482 23.4194C44.0482 23.8396 43.7961 24.2178 43.502 24.47C43.2079 24.7221 42.8297 24.8481 42.4095 24.8061C33.5016 24.0917 25.6021 30.7735 24.8458 39.6824C24.7618 40.4809 24.1315 41.0692 23.3331 41.0692H23.2911ZM40.9388 22.5368C36.6109 22.5368 32.4091 24.0497 29.0477 26.9073C25.266 30.1011 22.997 34.5556 22.5768 39.4724C22.5768 39.6405 22.6188 39.8506 22.7449 39.9766C22.8709 40.1027 23.0389 40.1867 23.207 40.2288V40.649L23.2491 40.2288C23.5852 40.2288 23.9214 39.9346 23.9214 39.5984C24.7197 30.2272 32.9974 23.2093 42.3675 23.9657C42.5776 23.9657 42.7037 23.9657 42.8717 23.8396C42.9978 23.7136 43.1238 23.5454 43.1238 23.3352C43.1238 22.957 42.8717 22.6209 42.4936 22.5789C41.9473 22.5368 41.4431 22.4949 40.8969 22.4949L40.9388 22.5368Z" fill="white"/>
<path d="M12.7417 39.7667C12.7417 39.7667 12.6996 39.7667 12.6576 39.7667C12.0693 39.7247 11.6071 39.1784 11.6491 38.5901C12.9937 22.411 27.238 10.3503 43.4572 11.653C44.0455 11.695 44.5077 12.2413 44.4657 12.8296C44.4237 13.418 43.8774 13.8803 43.2892 13.8383C28.3306 12.5776 15.1367 23.7558 13.8762 38.7582C13.8342 39.3465 13.3299 39.7667 12.7837 39.7667H12.7417Z" fill="white"/>
<path d="M12.7413 40.1867H12.6153C11.7749 40.1027 11.1867 39.3884 11.2287 38.5479C12.5733 22.1587 27.0276 9.88787 43.4569 11.2326C44.2973 11.3167 44.9275 12.031 44.8435 12.8715C44.7595 13.7119 44.0452 14.3003 43.2048 14.2583C36.0616 13.67 29.1285 15.8972 23.6661 20.5198C18.2037 25.1424 14.8423 31.656 14.254 38.8C14.17 39.5985 13.5397 40.1867 12.7413 40.1867ZM41.0198 11.989C26.0612 11.989 13.3296 23.5034 12.069 38.6319C12.069 39.0101 12.3211 39.3463 12.6993 39.3883V39.8085L12.7413 39.3883C13.0775 39.3883 13.4137 39.0941 13.4137 38.758C14.0439 31.4038 17.4894 24.7221 23.1199 19.9314C28.7504 15.1407 35.9356 12.8715 43.2888 13.4599C43.667 13.5019 44.0031 13.2076 44.0451 12.8294C44.0451 12.4512 43.7931 12.115 43.4149 12.073C42.6165 11.989 41.8182 11.989 41.0198 11.989Z" fill="white"/>
<path d="M66.3152 49.8938C65.7269 49.8938 65.2227 49.3895 65.2227 48.8012V46.6581C65.2227 46.0698 65.7269 45.5654 66.3152 45.5654C66.9034 45.5654 67.4077 46.0698 67.4077 46.6581V48.8012C67.4077 49.3895 66.9034 49.8938 66.3152 49.8938Z" fill="white"/>
<path d="M66.3154 50.3144C65.475 50.3144 64.8027 49.642 64.8027 48.8015V46.6584C64.8027 45.818 65.475 45.1455 66.3154 45.1455C67.1558 45.1455 67.828 45.818 67.828 46.6584V48.8015C67.828 49.642 67.1558 50.3144 66.3154 50.3144ZM66.3154 45.986C65.9372 45.986 65.6431 46.2802 65.6431 46.6584V48.8015C65.6431 49.1797 65.9372 49.4739 66.3154 49.4739C66.6936 49.4739 66.9877 49.1797 66.9877 48.8015V46.6584C66.9877 46.2802 66.6936 45.986 66.3154 45.986Z" fill="white"/>
<path d="M66.3152 80.1925C65.7269 80.1925 65.2227 79.6883 65.2227 79.1V60.1473C65.2227 59.559 65.7269 59.0547 66.3152 59.0547C66.9034 59.0547 67.4077 59.559 67.4077 60.1473V79.1C67.4077 79.6883 66.9034 80.1925 66.3152 80.1925Z" fill="#1F68F2"/>
<path d="M66.3154 80.613C65.475 80.613 64.8027 79.9407 64.8027 79.1002V60.1475C64.8027 59.3071 65.475 58.6348 66.3154 58.6348C67.1558 58.6348 67.828 59.3071 67.828 60.1475V79.1002C67.828 79.9407 67.1558 80.613 66.3154 80.613ZM66.3154 59.4752C65.9372 59.4752 65.6431 59.7693 65.6431 60.1475V79.1002C65.6431 79.4784 65.9372 79.7726 66.3154 79.7726C66.6936 79.7726 66.9877 79.4784 66.9877 79.1002V60.1475C66.9877 59.7693 66.6936 59.4752 66.3154 59.4752Z" fill="#1F68F2"/>
<path d="M68.2062 61.2821H64.4665C63.0378 61.2821 61.8613 60.1054 61.8613 58.6766V50.8603C61.8613 49.4315 63.0378 48.2549 64.4665 48.2549H68.2062C69.6348 48.2549 70.8113 49.4315 70.8113 50.8603V58.6766C70.8113 60.1054 69.6348 61.2821 68.2062 61.2821ZM64.4245 50.4821C64.2144 50.4821 64.0462 50.6502 64.0462 50.8603V58.6766C64.0462 58.8867 64.2144 59.0548 64.4245 59.0548H68.1641C68.3742 59.0548 68.5423 58.8867 68.5423 58.6766V50.8603C68.5423 50.6502 68.3742 50.4821 68.1641 50.4821H64.4245Z" fill="white"/>
<path d="M68.2065 61.6608H64.4667C62.828 61.6608 61.4414 60.316 61.4414 58.6351V50.8187C61.4414 49.1797 62.786 47.793 64.4667 47.793H68.2065C69.8452 47.793 71.2317 49.1377 71.2317 50.8187V58.6351C71.2317 60.274 69.8872 61.6608 68.2065 61.6608ZM64.4667 48.6754C63.2482 48.6754 62.2818 49.642 62.2818 50.8607V58.677C62.2818 59.8957 63.2482 60.8623 64.4667 60.8623H68.2065C69.425 60.8623 70.3914 59.8957 70.3914 58.677V50.8607C70.3914 49.642 69.425 48.6754 68.2065 48.6754H64.4667ZM68.2065 59.4755H64.4667C64.0045 59.4755 63.6684 59.0973 63.6684 58.677V50.8607C63.6684 50.3985 64.0466 50.0623 64.4667 50.0623H68.2065C68.6687 50.0623 69.0047 50.4405 69.0047 50.8607V58.677C69.0047 59.1393 68.6266 59.4755 68.2065 59.4755ZM64.4667 50.9027V58.677H68.2065V50.8607H64.5087L64.4667 50.9027Z" fill="white"/>
</svg>
