<svg width="20" height="20" viewBox="0 0 20 20" fill="none" xmlns="http://www.w3.org/2000/svg">
<path d="M12.0516 17.5779H3.14844C2.99304 17.5779 2.844 17.5162 2.73412 17.4063C2.62423 17.2964 2.5625 17.1474 2.5625 16.992V5.62207C2.5625 5.46667 2.62423 5.31763 2.73412 5.20775C2.844 5.09787 2.99304 5.03613 3.14844 5.03613H12.0516C12.207 5.03613 12.356 5.09787 12.4659 5.20775C12.5758 5.31763 12.6375 5.46667 12.6375 5.62207V16.992C12.6375 17.1474 12.5758 17.2964 12.4659 17.4063C12.356 17.5162 12.207 17.5779 12.0516 17.5779ZM3.73438 16.4061H11.4656V6.20801H3.73438V16.4061Z" fill="#F6F6F6"/>
<path d="M15.2127 14.4168H12.0514C11.896 14.4168 11.7469 14.3551 11.637 14.2452C11.5272 14.1353 11.4654 13.9863 11.4654 13.8309C11.4654 13.6755 11.5272 13.5264 11.637 13.4165C11.7469 13.3067 11.896 13.2449 12.0514 13.2449H14.6268V3.04688H6.89551V5.62187C6.89551 5.77728 6.83378 5.92631 6.72389 6.0362C6.61401 6.14608 6.46497 6.20781 6.30957 6.20781C6.15417 6.20781 6.00513 6.14608 5.89525 6.0362C5.78536 5.92631 5.72363 5.77728 5.72363 5.62187V2.46094C5.72363 2.30554 5.78536 2.1565 5.89525 2.04662C6.00513 1.93673 6.15417 1.875 6.30957 1.875H15.2127C15.3681 1.875 15.5171 1.93673 15.627 2.04662C15.7369 2.1565 15.7986 2.30554 15.7986 2.46094V13.8309C15.7986 13.9863 15.7369 14.1353 15.627 14.2452C15.5171 14.3551 15.3681 14.4168 15.2127 14.4168Z" fill="#F6F6F6"/>
</svg>
