<svg width="28" height="29" viewBox="0 0 28 29" fill="none" xmlns="http://www.w3.org/2000/svg">
<path fill-rule="evenodd" clip-rule="evenodd" d="M22.6928 2.05018C22.3102 1.82626 21.8209 1.95915 21.6 2.34698L19.1533 6.64375C17.4864 5.86351 15.7609 5.46457 14.0142 5.46457C9.32104 5.46457 4.781 8.34644 1.11993 13.7641L1.10541 13.7854L1.09271 13.8038C0.970762 13.9784 0.967649 14.1837 1.0921 14.3563C3.79364 18.3691 6.97705 20.9972 10.3484 22.1018L8.39935 25.5222C8.1784 25.9101 8.30951 26.406 8.69214 26.6299L9.03857 26.8326C9.4212 27.0565 9.91046 26.9237 10.1314 26.5358L23.332 3.36058C23.553 2.97275 23.4219 2.47684 23.0392 2.25291L22.6928 2.05018ZM18.092 8.50705C16.7353 7.90974 15.3654 7.6186 14.0142 7.6186C10.6042 7.6186 7.07416 9.47311 3.93908 13.4239C3.63812 13.8032 3.63812 14.3561 3.93908 14.7354C6.28912 17.697 8.86102 19.4811 11.438 20.189L12.7855 17.8232C11.2462 17.3322 9.97333 15.9627 9.97333 14.0818C9.97333 11.7026 11.7969 9.77368 14.046 9.77368C15.0842 9.77368 16.0317 10.1847 16.7511 10.8612L18.092 8.50705ZM15.639 12.8137C15.2926 12.2767 14.7231 11.9277 14.046 11.9277C12.9205 11.9277 12 12.8906 12 14.0802C12 14.8664 12.8432 15.7851 13.9024 15.8624L15.639 12.8137Z" fill="#F9F9F9" fill-opacity="0.5"/>
<path d="M14.6875 22.6761C19.1313 22.4148 23.4058 19.5687 26.8866 14.431C26.9595 14.3234 27.0002 14.2121 27.0002 14.0797C27.0002 13.9535 26.9652 13.8481 26.8958 13.7455C25.5581 11.7677 24.1027 10.1289 22.5654 8.84558L21.5062 10.7052C22.3889 11.4653 23.2533 12.37 24.0896 13.4239C24.3906 13.8032 24.3906 14.3561 24.0896 14.7354C21.5678 17.9135 18.7905 19.7357 16.0256 20.327L14.6875 22.6761Z" fill="#F9F9F9" fill-opacity="0.5"/>
</svg>
