<svg width="19" height="20" viewBox="0 0 19 20" fill="none" xmlns="http://www.w3.org/2000/svg">
<path d="M16.7437 2.75609C15.9577 1.96873 14.9579 1.42943 13.8682 1.20509C12.7785 0.98076 11.6469 1.08126 10.6138 1.49412C9.58065 1.90699 8.69147 2.61405 8.05651 3.52762C7.42155 4.44118 7.06875 5.52105 7.04187 6.63328L1.24094 13.9542C0.786547 14.545 0.562627 15.2809 0.610956 16.0247C0.659285 16.7685 0.976562 17.4692 1.50359 17.9963C2.03061 18.5233 2.73138 18.8406 3.47514 18.8889C4.21889 18.9372 4.95483 18.7133 5.54562 18.2589L12.8666 12.458C13.9788 12.4311 15.0587 12.0783 15.9722 11.4433C16.8858 10.8084 17.5929 9.91919 18.0057 8.88608C18.4186 7.85297 18.5191 6.72139 18.2947 5.63168C18.0704 4.54198 17.5311 3.54211 16.7437 2.75609ZM4.81531 17.3267C4.45336 17.6054 4.00242 17.7429 3.54656 17.7137C3.09069 17.6844 2.66103 17.4904 2.33766 17.1678C2.01429 16.8451 1.81929 16.4159 1.78901 15.9601C1.75874 15.5043 1.89526 15.053 2.17312 14.6905L7.23781 8.28984C7.49893 9.23939 8.00235 10.1048 8.69871 10.8011C9.39506 11.4975 10.2604 12.0009 11.21 12.262L4.81531 17.3267ZM9.56531 9.96422C8.93591 9.33478 8.50729 8.53285 8.33365 7.65982C8.16001 6.78679 8.24915 5.88188 8.5898 5.05951C8.93045 4.23714 9.5073 3.53425 10.2474 3.03972C10.9875 2.5452 11.8577 2.28125 12.7478 2.28125C13.6379 2.28125 14.5081 2.5452 15.2482 3.03972C15.9883 3.53425 16.5652 4.23714 16.9058 5.05951C17.2465 5.88188 17.3356 6.78679 17.162 7.65982C16.9883 8.53285 16.5597 9.33478 15.9303 9.96422C15.511 10.3852 15.0128 10.7192 14.4641 10.9472C13.9154 11.1751 13.3271 11.2924 12.733 11.2924C12.1388 11.2924 11.5505 11.1751 11.0018 10.9472C10.4532 10.7192 9.95489 10.3852 9.53562 9.96422H9.56531Z" fill="#F9F9F9" fill-opacity="0.5"/>
</svg>
