<svg width="27" height="26" viewBox="0 0 27 26" fill="none" xmlns="http://www.w3.org/2000/svg">
<path d="M11.9468 3.10493C12.688 2.43898 13.812 2.43898 14.5533 3.10493L21.7033 9.52893C22.1149 9.89877 22.35 10.4261 22.35 10.9795V20.1499C22.35 21.2268 21.4769 22.0999 20.4 22.0999H17.15C16.0731 22.0999 15.2 21.2268 15.2 20.1499V15.5999C15.2 15.2408 14.909 14.9499 14.55 14.9499H11.95C11.591 14.9499 11.3 15.2408 11.3 15.5999V20.1499C11.3 21.2268 10.427 22.0999 9.35002 22.0999H6.10002C5.02307 22.0999 4.15002 21.2268 4.15002 20.1499V10.9795C4.15002 10.4261 4.38514 9.89877 4.79677 9.52893L11.9468 3.10493ZM13.6845 4.07195C13.4374 3.84997 13.0627 3.84997 12.8156 4.07195L5.6656 10.496C5.5284 10.6192 5.45002 10.795 5.45002 10.9795V20.1499C5.45002 20.5088 5.74104 20.7999 6.10002 20.7999H9.35002C9.70901 20.7999 10 20.5088 10 20.1499V15.5999C10 14.5228 10.8731 13.6499 11.95 13.6499H14.55C15.6269 13.6499 16.5 14.5228 16.5 15.5999V20.1499C16.5 20.5088 16.7911 20.7999 17.15 20.7999H20.4C20.759 20.7999 21.05 20.5088 21.05 20.1499V10.9795C21.05 10.795 20.9716 10.6192 20.8345 10.496L13.6845 4.07195Z" fill="#212121"/>
</svg>
