<svg width="27" height="26" viewBox="0 0 27 26" fill="none" xmlns="http://www.w3.org/2000/svg">
<path d="M23.1625 3.0878C22.0869 2.01035 20.7187 1.27236 19.2275 0.96538C17.7363 0.658396 16.1878 0.795919 14.7741 1.36089C13.3604 1.92586 12.1436 2.89343 11.2747 4.14357C10.4058 5.39371 9.92304 6.87143 9.88626 8.39342L1.94813 18.4115C1.32634 19.22 1.01992 20.2271 1.08605 21.2448C1.15219 22.2626 1.58636 23.2216 2.30755 23.9428C3.02874 24.6639 3.98769 25.0981 5.00546 25.1642C6.02323 25.2304 7.0303 24.924 7.83876 24.3022L17.8569 16.364C19.3789 16.3273 20.8566 15.8445 22.1067 14.9756C23.3569 14.1067 24.3244 12.8899 24.8894 11.4762C25.4544 10.0625 25.5919 8.51399 25.2849 7.02282C24.9779 5.53165 24.24 4.1634 23.1625 3.0878ZM6.83938 23.0265C6.34408 23.4079 5.72701 23.5961 5.10319 23.5561C4.47938 23.5161 3.89141 23.2505 3.44891 22.809C3.0064 22.3675 2.73956 21.7801 2.69814 21.1564C2.65671 20.5327 2.84353 19.9152 3.22376 19.419L10.1544 10.6603C10.5117 11.9597 11.2006 13.1439 12.1535 14.0968C13.1064 15.0497 14.2906 15.7386 15.59 16.0959L6.83938 23.0265ZM13.3394 12.9515C12.4781 12.0902 11.8916 10.9928 11.6539 9.79816C11.4163 8.60349 11.5383 7.36518 12.0045 6.23984C12.4706 5.11449 13.26 4.15264 14.2728 3.47592C15.2856 2.79921 16.4763 2.43801 17.6944 2.43801C18.9125 2.43801 20.1032 2.79921 21.116 3.47592C22.1288 4.15264 22.9181 5.11449 23.3843 6.23984C23.8504 7.36518 23.9724 8.60349 23.7348 9.79816C23.4972 10.9928 22.9107 12.0902 22.0494 12.9515C21.4757 13.5276 20.7938 13.9847 20.043 14.2966C19.2921 14.6085 18.4871 14.7691 17.6741 14.7691C16.861 14.7691 16.056 14.6085 15.3052 14.2966C14.5543 13.9847 13.8725 13.5276 13.2988 12.9515H13.3394Z" fill="#212121"/>
</svg>
