<svg width="27" height="26" viewBox="0 0 27 26" fill="none" xmlns="http://www.w3.org/2000/svg">
<path d="M13.5 2.03125C19.5483 2.03125 24.4688 6.95175 24.4688 13C24.4688 19.0483 19.5483 23.9688 13.5 23.9688C7.45175 23.9688 2.53125 19.0483 2.53125 13C2.53125 6.95175 7.45175 2.03125 13.5 2.03125ZM13.5 0.8125C6.76966 0.8125 1.3125 6.26925 1.3125 13C1.3125 19.7308 6.76966 25.1875 13.5 25.1875C20.2303 25.1875 25.6875 19.7308 25.6875 13C25.6875 6.26925 20.2303 0.8125 13.5 0.8125Z" fill="#212121"/>
<path d="M18.3697 11.6773L11.8803 7.40636C10.7603 6.66942 9.84375 7.16382 9.84375 8.50445V17.4927C9.84375 18.8334 10.7615 19.3294 11.8835 18.5953L18.3669 14.3524C19.4885 13.6175 19.4897 12.4142 18.3697 11.6773ZM17.5048 13.4562L11.7422 17.2275C11.3684 17.4724 11.0625 17.3071 11.0625 16.8602V9.13657C11.0625 8.6897 11.368 8.52517 11.7413 8.77095L17.506 12.5645C17.8794 12.8099 17.879 13.2113 17.5048 13.4562Z" fill="#212121"/>
</svg>
