<svg width="19" height="19" viewBox="0 0 19 19" fill="none" xmlns="http://www.w3.org/2000/svg">
<g clip-path="url(#clip0_1372_16324)">
<path d="M18.8679 18.2385L11.6762 11.1135C12.5306 10.1507 13.0887 8.96151 13.2832 7.68899C13.4777 6.41647 13.3004 5.11484 12.7725 3.94074C12.2447 2.76663 11.3888 1.77006 10.3079 1.07094C9.22696 0.371824 7.96705 -6.44752e-05 6.67975 2.5831e-05C5.80219 -0.00242275 4.93287 0.169232 4.12212 0.505052C3.31136 0.840873 2.57527 1.33419 1.95647 1.95643C1.02228 2.8906 0.386096 4.08082 0.128354 5.37656C-0.129388 6.6723 0.00289269 8.01537 0.508467 9.23593C1.01404 10.4565 1.8702 11.4997 2.96868 12.2337C4.06716 12.9677 5.35862 13.3594 6.67975 13.3594C8.28175 13.3634 9.831 12.7871 11.0408 11.737L18.2415 18.8709C18.2825 18.9144 18.3319 18.9493 18.3866 18.9733C18.4413 18.9974 18.5003 19.0102 18.5601 19.0109C18.6199 19.0117 18.6792 19.0004 18.7346 18.9778C18.7899 18.9551 18.8401 18.9215 18.8822 18.8791C18.9242 18.8366 18.9573 18.7861 18.9795 18.7305C19.0016 18.675 19.0123 18.6156 19.011 18.5558C19.0097 18.496 18.9963 18.4371 18.9718 18.3826C18.9472 18.3281 18.9119 18.2791 18.8679 18.2385ZM2.58584 10.7736C1.50038 9.68799 0.890586 8.21565 0.890586 6.68046C0.890586 5.14526 1.50038 3.67293 2.58584 2.58729C3.67142 1.50152 5.14385 0.891462 6.67922 0.891323C7.43946 0.891254 8.19227 1.04093 8.89467 1.33179C9.59706 1.62266 10.2353 2.04903 10.7729 2.58655C11.3105 3.12407 11.737 3.76222 12.028 4.46457C12.319 5.16691 12.4688 5.91969 12.4689 6.67993C12.4689 7.44017 12.3193 8.19298 12.0284 8.89538C11.7375 9.59777 11.3112 10.236 10.7737 10.7736C9.68802 11.8591 8.21569 12.4689 6.68049 12.4689C5.14529 12.4689 3.67296 11.8591 2.58733 10.7736H2.58584Z" fill="#F9F9F9" fill-opacity="0.5"/>
</g>
<defs>
<clipPath id="clip0_1372_16324">
<rect width="19" height="19" fill="white"/>
</clipPath>
</defs>
</svg>
