<svg width="19" height="20" viewBox="0 0 19 20" fill="none" xmlns="http://www.w3.org/2000/svg">
<path fill-rule="evenodd" clip-rule="evenodd" d="M11.95 3.70715C10.3326 3.38928 8.66773 3.38928 7.05037 3.70715C5.59346 3.99348 4.55225 5.2546 4.55225 6.71059V15.7534C4.55225 16.3422 5.20846 16.7327 5.74646 16.4214L8.26944 14.9612C9.02991 14.5211 9.97041 14.5211 10.7309 14.9612L13.2538 16.4214C13.7919 16.7327 14.4481 16.3422 14.4481 15.7534V6.71059C14.4481 5.2546 13.4069 3.99348 11.95 3.70715ZM6.82136 2.54194C8.5899 2.19436 10.4104 2.19435 12.1789 2.54194C14.1836 2.93592 15.6356 4.67774 15.6356 6.71059V15.7534C15.6356 17.2805 13.9682 18.2068 12.6591 17.4492L10.136 15.989C9.7436 15.7618 9.25673 15.7618 8.8643 15.989L6.34129 17.4492C5.03211 18.2068 3.36475 17.2805 3.36475 15.7534V6.71059C3.36475 4.67774 4.81676 2.93592 6.82136 2.54194Z" fill="#F9F9F9" fill-opacity="0.5"/>
</svg>
