<svg width="19" height="20" viewBox="0 0 19 20" fill="none" xmlns="http://www.w3.org/2000/svg">
<path d="M8.43786 3.05738C8.97952 2.57072 9.80092 2.57072 10.3426 3.05738L15.5676 7.75184C15.8684 8.0221 16.0402 8.40745 16.0402 8.81184V15.5133C16.0402 16.3003 15.4022 16.9383 14.6152 16.9383H12.2402C11.4533 16.9383 10.8152 16.3003 10.8152 15.5133V12.1883C10.8152 11.9259 10.6025 11.7133 10.3402 11.7133H8.44023C8.1779 11.7133 7.96523 11.9259 7.96523 12.1883V15.5133C7.96523 16.3003 7.32724 16.9383 6.54023 16.9383H4.16523C3.37823 16.9383 2.74023 16.3003 2.74023 15.5133V8.81184C2.74023 8.40745 2.91205 8.0221 3.21286 7.75184L8.43786 3.05738ZM9.70772 3.76404C9.52713 3.60183 9.25333 3.60183 9.07277 3.76404L3.84777 8.45851C3.74751 8.54859 3.69023 8.67704 3.69023 8.81184V15.5133C3.69023 15.7756 3.9029 15.9883 4.16523 15.9883H6.54023C6.80257 15.9883 7.01523 15.7756 7.01523 15.5133V12.1883C7.01523 11.4012 7.65323 10.7633 8.44023 10.7633H10.3402C11.1272 10.7633 11.7652 11.4012 11.7652 12.1883V15.5133C11.7652 15.7756 11.9779 15.9883 12.2402 15.9883H14.6152C14.8775 15.9883 15.0902 15.7756 15.0902 15.5133V8.81184C15.0902 8.67704 15.0329 8.54859 14.9327 8.45851L9.70772 3.76404Z" fill="#F9F9F9" fill-opacity="0.5"/>
</svg>
