<svg width="61" height="61" viewBox="0 0 61 61" fill="none" xmlns="http://www.w3.org/2000/svg">
<path d="M45.2544 30.8432C45.0766 30.6667 44.8659 30.527 44.6341 30.4319C44.4024 30.3369 44.1542 30.2884 43.9037 30.2893C43.6533 30.2902 43.4054 30.3404 43.1743 30.4371C42.9433 30.5338 42.7335 30.675 42.557 30.8527C42.3805 31.0305 42.2408 31.2412 42.1458 31.473C42.0507 31.7047 42.0023 31.9529 42.0032 32.2034C42.004 32.4538 42.0543 32.7017 42.1509 32.9328C42.2476 33.1638 42.3888 33.3736 42.5666 33.5501C44.1796 35.146 45.46 37.046 46.3336 39.1402C47.2073 41.2343 47.6568 43.481 47.6562 45.7501C47.6562 48.0757 40.9653 51.4688 30.5 51.4688C20.0347 51.4688 13.3437 48.0757 13.3437 45.7501C13.3407 43.4959 13.7819 41.2633 14.6422 39.1798C15.5024 37.0963 16.7648 35.2027 18.3572 33.6073C18.7122 33.2501 18.9115 32.7669 18.9115 32.2633C18.9115 31.7597 18.7122 31.2766 18.3572 30.9194C18 30.5644 17.5169 30.3651 17.0133 30.3651C16.5097 30.3651 16.0265 30.5644 15.6694 30.9194C13.7157 32.8622 12.1671 35.1735 11.1134 37.7194C10.0597 40.2652 9.52196 42.9948 9.53125 45.7501C9.53125 51.9454 20.3397 55.2813 30.5 55.2813C40.6603 55.2813 51.4687 51.9454 51.4687 45.7501C51.4761 42.977 50.9302 40.2302 49.8632 37.6706C48.7961 35.111 47.2293 32.7899 45.2544 30.8432Z" fill="#F9F9F9"/>
<path d="M30.5 32.4063C33.1391 32.4063 35.719 31.6237 37.9134 30.1574C40.1078 28.6912 41.8181 26.6072 42.828 24.1689C43.838 21.7307 44.1022 19.0477 43.5874 16.4593C43.0725 13.8708 41.8016 11.4932 39.9355 9.62705C38.0693 7.76089 35.6917 6.49002 33.1032 5.97515C30.5148 5.46028 27.8318 5.72453 25.3936 6.73449C22.9553 7.74445 20.8713 9.45475 19.4051 11.6491C17.9388 13.8435 17.1562 16.4234 17.1562 19.0625C17.1562 22.6015 18.5621 25.9955 21.0645 28.498C23.567 31.0004 26.961 32.4063 30.5 32.4063ZM30.5 9.53126C32.3851 9.53126 34.2279 10.0903 35.7953 11.1376C37.3627 12.1849 38.5843 13.6734 39.3057 15.4151C40.0271 17.1567 40.2159 19.0731 39.8481 20.922C39.4803 22.7708 38.5726 24.4691 37.2396 25.8021C35.9066 27.1351 34.2083 28.0429 32.3595 28.4106C30.5106 28.7784 28.5942 28.5896 26.8525 27.8682C25.1109 27.1468 23.6224 25.9252 22.5751 24.3578C21.5277 22.7904 20.9688 20.9476 20.9688 19.0625C20.9688 16.5347 21.9729 14.1104 23.7604 12.3229C25.5478 10.5354 27.9722 9.53126 30.5 9.53126Z" fill="#F9F9F9"/>
</svg>
