<svg width="24" height="24" viewBox="0 0 24 24" fill="none" xmlns="http://www.w3.org/2000/svg">
<g clip-path="url(#clip0_215_455)">
<path d="M23.8332 23.0382L14.7488 14.0382C15.8282 12.822 16.5331 11.3198 16.7788 9.71241C17.0245 8.10501 16.8005 6.46085 16.1337 4.97777C15.467 3.49469 14.3858 2.23587 13.0205 1.35277C11.6551 0.469672 10.0636 -8.14423e-05 8.43758 3.26286e-05C7.32909 -0.00306032 6.231 0.213767 5.20688 0.637961C4.18277 1.06215 3.25297 1.68529 2.47133 2.47128C1.29131 3.65129 0.487701 5.15471 0.162132 6.79144C-0.163437 8.42816 0.00365393 10.1247 0.642274 11.6664C1.28089 13.2082 2.36236 14.526 3.74991 15.4531C5.13747 16.3802 6.76879 16.875 8.43758 16.875C10.4612 16.8801 12.4181 16.1521 13.9463 14.8257L23.042 23.8369C23.0937 23.8919 23.156 23.9359 23.2252 23.9663C23.2943 23.9967 23.3688 24.0129 23.4444 24.0138C23.5199 24.0148 23.5948 24.0005 23.6647 23.9719C23.7346 23.9433 23.798 23.9009 23.8512 23.8472C23.9043 23.7936 23.9461 23.7298 23.9741 23.6596C24.002 23.5895 24.0156 23.5144 24.0139 23.4389C24.0122 23.3634 23.9954 23.289 23.9643 23.2201C23.9333 23.1513 23.8887 23.0894 23.8332 23.0382ZM3.26633 13.6088C1.89522 12.2375 1.12495 10.3777 1.12495 8.43847C1.12495 6.49927 1.89522 4.63948 3.26633 3.26816C4.63758 1.89666 6.49749 1.12606 8.43691 1.12588C9.39722 1.12579 10.3481 1.31485 11.2354 1.68227C12.1226 2.04968 12.9288 2.58824 13.6079 3.26722C14.287 3.9462 14.8257 4.75228 15.1933 5.63945C15.5608 6.52662 15.7501 7.4775 15.7502 8.43781C15.7503 9.39811 15.5612 10.349 15.1938 11.2363C14.8264 12.1235 14.2878 12.9297 13.6088 13.6088C12.2375 14.9799 10.3777 15.7502 8.43851 15.7502C6.49932 15.7502 4.63953 14.9799 3.2682 13.6088H3.26633Z" fill="#212121"/>
</g>
<defs>
<clipPath id="clip0_215_455">
<rect width="24" height="24" fill="white"/>
</clipPath>
</defs>
</svg>
