<svg width="19" height="20" viewBox="0 0 19 20" fill="none" xmlns="http://www.w3.org/2000/svg">
<path d="M9.5 1.98438C13.9199 1.98438 17.5156 5.58013 17.5156 10C17.5156 14.4199 13.9199 18.0156 9.5 18.0156C5.08013 18.0156 1.48438 14.4199 1.48438 10C1.48438 5.58013 5.08013 1.98438 9.5 1.98438ZM9.5 1.09375C4.58167 1.09375 0.59375 5.08137 0.59375 10C0.59375 14.9186 4.58167 18.9062 9.5 18.9062C14.4183 18.9062 18.4062 14.9186 18.4062 10C18.4062 5.08137 14.4183 1.09375 9.5 1.09375Z" fill="#F9F9F9" fill-opacity="0.5"/>
<path d="M13.0586 9.0335L8.31636 5.91245C7.49788 5.37392 6.82812 5.73522 6.82812 6.7149V13.2833C6.82812 14.2629 7.49877 14.6254 8.31873 14.089L13.0566 10.9884C13.8762 10.4514 13.8771 9.57203 13.0586 9.0335ZM12.4266 10.3335L8.21542 13.0894C7.9423 13.2684 7.71875 13.1476 7.71875 12.821V7.17684C7.71875 6.85028 7.942 6.73004 8.21483 6.90965L12.4275 9.68187C12.7003 9.86118 12.7 10.1545 12.4266 10.3335Z" fill="#F9F9F9" fill-opacity="0.5"/>
</svg>
