<svg width="27" height="26" viewBox="0 0 27 26" fill="none" xmlns="http://www.w3.org/2000/svg">
<path fill-rule="evenodd" clip-rule="evenodd" d="M16.8524 4.38873C14.6391 3.95375 12.3609 3.95375 10.1476 4.38873C8.15398 4.78055 6.72916 6.50629 6.72916 8.49871V20.873C6.72916 21.6788 7.62713 22.2132 8.36334 21.7871L11.8158 19.789C12.8565 19.1868 14.1435 19.1868 15.1841 19.789L18.6366 21.7871C19.3728 22.2132 20.2708 21.6788 20.2708 20.873V8.49871C20.2708 6.50629 18.846 4.78055 16.8524 4.38873ZM9.83426 2.79424C12.2544 2.31859 14.7456 2.31858 17.1657 2.79424C19.9089 3.33336 21.8958 5.7169 21.8958 8.49871V20.873C21.8958 22.9628 19.6141 24.2304 17.8227 23.1936L14.3701 21.1954C13.8331 20.8846 13.1669 20.8846 12.6299 21.1954L9.17732 23.1936C7.38582 24.2304 5.10416 22.9628 5.10416 20.873V8.49871C5.10416 5.7169 7.09112 3.33336 9.83426 2.79424Z" fill="#212121"/>
</svg>
