<svg width="43" height="61" viewBox="0 0 43 61" fill="none" xmlns="http://www.w3.org/2000/svg">
<path d="M35.8594 44.0552C35.8594 44.6851 35.4858 45 34.7388 45H29.4653C28.9087 45 28.2935 44.8022 27.6196 44.4067C26.9604 43.9966 26.4551 43.5059 26.1035 42.9346L22.3682 37.0898C20.8301 34.6875 18.9697 33.4863 16.7871 33.4863H11.4258V42.9346C11.4258 43.5059 11.2207 43.9966 10.8105 44.4067C10.415 44.8022 9.93164 45 9.36035 45H5.22949C4.6582 45 4.16748 44.8022 3.75732 44.4067C3.34717 43.9966 3.14209 43.5059 3.14209 42.9346V15.5786C3.14209 15.0073 3.33984 14.5166 3.73535 14.1064C4.13086 13.6963 4.61426 13.4912 5.18555 13.4912H23.313C26.6675 13.4912 29.4141 14.3921 31.5527 16.1938C33.7061 17.9956 34.7827 20.4272 34.7827 23.4888C34.7827 27.7515 32.0215 30.4248 26.499 31.5088C27.3779 31.8311 28.1909 32.3877 28.938 33.1787C29.6851 33.9551 30.542 35.0903 31.5088 36.5845L35.5078 42.9346C35.7422 43.3447 35.8594 43.7183 35.8594 44.0552ZM11.4258 27.2681H20.7861C22.2949 27.2681 23.6206 26.9678 24.7632 26.3672C25.9204 25.7666 26.499 24.8071 26.499 23.4888C26.499 22.1704 25.9204 21.2109 24.7632 20.6104C23.6206 20.0098 22.2949 19.7095 20.7861 19.7095H11.4258V27.2681Z" fill="white"/>
<path d="M19.8936 42.4971C19.8936 40.5342 20.1621 38.8496 20.6992 37.4434C21.2461 36.0371 22.0176 34.9385 23.0137 34.1475C24.9082 32.6338 27.3789 31.877 30.4258 31.877H31.4512C34.498 31.877 36.9688 32.6338 38.8633 34.1475C40.9434 35.8076 41.9834 38.5908 41.9834 42.4971C41.9834 46.4229 40.9434 49.2109 38.8633 50.8613C36.9688 52.3652 34.498 53.1172 31.4512 53.1172H30.4258C27.3789 53.1172 24.9082 52.3652 23.0137 50.8613C20.9336 49.2109 19.8936 46.4229 19.8936 42.4971ZM30.9385 36.0225C27.2568 36.0225 25.416 38.1855 25.416 42.5117C25.416 46.8281 27.2568 48.9863 30.9385 48.9863C34.6201 48.9863 36.4609 46.8281 36.4609 42.5117C36.4609 38.1855 34.6201 36.0225 30.9385 36.0225Z" fill="#1F68F2"/>
</svg>
