<svg width="24" height="24" viewBox="0 0 24 24" fill="none" xmlns="http://www.w3.org/2000/svg">
<path d="M23.7029 6.32068L21.9849 4.60268C21.6029 4.22068 20.9359 4.21868 20.5529 4.60268L11.2859 13.8717L7.57493 10.1607C7.17993 9.76568 6.53793 9.76568 6.14293 10.1607L4.42493 11.8787C4.23393 12.0697 4.12793 12.3237 4.12793 12.5947C4.12793 12.8657 4.23293 13.1197 4.42493 13.3117L10.4679 19.3547C10.6869 19.5737 10.9769 19.6937 11.2859 19.6937C11.5949 19.6937 11.8859 19.5737 12.1039 19.3547L23.7039 7.75368C24.0989 7.35868 24.0979 6.71668 23.7029 6.32068ZM11.3959 18.6467C11.3439 18.6997 11.2269 18.6997 11.1739 18.6467L5.13093 12.5847L6.86693 10.8667L10.9319 14.9307C11.1199 15.1187 11.4519 15.1187 11.6389 14.9307L21.2779 5.30868L22.9959 7.02668V7.04568L11.3959 18.6467Z" fill="#1F68F2"/>
<path d="M6.339 19.354C6.558 19.573 6.848 19.693 7.157 19.693C7.466 19.693 7.757 19.573 7.975 19.354C8.17 19.159 8.17 18.842 7.975 18.647C7.78 18.452 7.463 18.452 7.268 18.647C7.216 18.7 7.099 18.7 7.046 18.647L1.003 12.585L2.721 10.867C2.726 10.862 2.735 10.862 2.739 10.867C2.934 11.062 3.251 11.062 3.446 10.867C3.641 10.672 3.641 10.355 3.446 10.16C3.052 9.76502 2.409 9.76502 2.014 10.16L0.297 11.878C0.105 12.069 0 12.324 0 12.595C0 12.866 0.105 13.121 0.297 13.312L6.339 19.354Z" fill="#1F68F2"/>
<path d="M10.6521 11.7919L17.1311 5.31087C17.1361 5.30687 17.1441 5.30387 17.1501 5.31087C17.3451 5.50587 17.6621 5.50587 17.8571 5.31087C18.0521 5.11587 18.0521 4.79887 17.8571 4.60387C17.4621 4.20887 16.8201 4.20887 16.4251 4.60387L9.94508 11.0849C9.75008 11.2799 9.75008 11.5969 9.94508 11.7919C10.0431 11.8899 10.1711 11.9379 10.2991 11.9379C10.4271 11.9379 10.5541 11.8899 10.6521 11.7919Z" fill="#1F68F2"/>
</svg>
