<svg width="61" height="61" viewBox="0 0 61 61" fill="none" xmlns="http://www.w3.org/2000/svg">
<g clip-path="url(#clip0_388_3149)">
<path d="M33.0417 61H27.9583C25.8564 61 24.1458 59.2895 24.1458 57.1875V52.4549C22.5192 51.9847 20.9535 51.3353 19.4679 50.5144L16.1205 53.863C14.6794 55.3041 12.1695 55.3016 10.7284 53.863L7.13319 50.2691C6.41263 49.5498 6.01613 48.5916 6.01613 47.5736C6.01613 46.5557 6.41263 45.5975 7.13319 44.8782L10.4818 41.5283C9.66215 40.0465 9.01275 38.4808 8.54381 36.8529H3.8125C1.71054 36.8529 0 35.1424 0 33.0404V27.9571C0 26.9379 0.3965 25.9809 1.11579 25.2616C1.83635 24.5423 2.79329 24.1446 3.8125 24.1446H8.54508C9.01529 22.5204 9.66342 20.9535 10.4844 19.4692L7.137 16.1205C5.65013 14.6336 5.65013 12.2165 7.137 10.7296L10.7309 7.13446C12.1708 5.69588 14.6819 5.69333 16.1231 7.13446L19.4717 10.4831C20.956 9.66342 22.5217 9.01402 24.1458 8.54508V3.8125C24.1458 1.71054 25.8564 0 27.9583 0H33.0417C35.1436 0 36.8542 1.71054 36.8542 3.8125V8.54508C38.4808 9.01529 40.0465 9.66469 41.5283 10.4831L44.8769 7.13446C46.3181 5.69588 48.828 5.69333 50.2691 7.13446L53.8643 10.7284C54.5848 11.4477 54.9813 12.4059 54.9813 13.4238C54.9813 14.4418 54.5848 15.4 53.8643 16.1193L50.5169 19.4679C51.3379 20.9522 51.9873 22.5179 52.4562 24.1446H57.1875C59.2895 24.1446 61 25.8551 61 27.9571V33.0404C61 34.0596 60.6035 35.0165 59.8842 35.7358C59.1649 36.4551 58.2067 36.8529 57.1875 36.8529H52.4549C51.9847 38.4796 51.3353 40.0465 50.5156 41.5296L53.863 44.8782C55.3499 46.3651 55.3499 48.7822 53.863 50.2691L50.2691 53.8643C48.828 55.3041 46.3181 55.3041 44.8769 53.8643L41.5308 50.5156C40.0465 51.3366 38.4796 51.9847 36.8554 52.4549V57.1875C36.8542 59.2895 35.1449 61 33.0417 61ZM19.262 47.6537C19.4895 47.6537 19.7195 47.7147 19.9241 47.8393C21.7236 48.9398 23.6718 49.748 25.7153 50.2424C26.2859 50.3809 26.6875 50.8905 26.6875 51.4776V57.1875C26.6875 57.889 27.2581 58.4583 27.9583 58.4583H33.0417C33.7419 58.4583 34.3125 57.889 34.3125 57.1875V51.4776C34.3125 50.8905 34.7141 50.3809 35.2847 50.2424C37.3256 49.748 39.2738 48.9423 41.0746 47.8405C41.5779 47.5343 42.2209 47.6118 42.6365 48.0261L46.6752 52.066C47.1517 52.5413 47.9956 52.5439 48.4734 52.066L52.0673 48.4709C52.5629 47.9752 52.5629 47.1695 52.0673 46.6739L48.0273 42.6339C47.6118 42.2196 47.5355 41.5728 47.8418 41.0721C48.9411 39.2751 49.748 37.3269 50.2424 35.2821C50.3796 34.7115 50.8905 34.3087 51.4776 34.3087H57.1875C57.5268 34.3087 57.8471 34.1765 58.0873 33.9363C58.3262 33.7 58.4583 33.381 58.4583 33.0404V27.9571C58.4583 27.2556 57.8877 26.6862 57.1875 26.6862H51.4776C50.8905 26.6862 50.3796 26.2846 50.2424 25.7128C49.7493 23.6705 48.9423 21.7224 47.8418 19.9229C47.5355 19.4221 47.6118 18.7778 48.0273 18.361L52.0673 14.321C52.3037 14.0834 52.4397 13.7568 52.4397 13.4225C52.4397 13.0883 52.3037 12.7604 52.0673 12.5241L48.4721 8.93015C47.9917 8.45104 47.1543 8.45104 46.6739 8.93015L42.6339 12.9701C42.2196 13.387 41.5753 13.4645 41.0721 13.1557C39.2764 12.0577 37.3295 11.2494 35.2847 10.7551C34.7154 10.6191 34.3125 10.1095 34.3125 9.52235V3.8125C34.3125 3.111 33.7419 2.54167 33.0417 2.54167H27.9583C27.2581 2.54167 26.6875 3.111 26.6875 3.8125V9.52235C26.6875 10.1095 26.2859 10.6191 25.7153 10.7576C23.6744 11.2507 21.7262 12.0577 19.9254 13.1582C19.4234 13.4645 18.7791 13.3882 18.3648 12.9727L14.3248 8.93269C13.8445 8.45358 13.007 8.45358 12.5266 8.93269L8.93396 12.5266C8.43833 13.0222 8.43833 13.8279 8.93396 14.3236L12.9739 18.3635C13.3895 18.7778 13.4657 19.4247 13.1595 19.9254C12.0589 21.7249 11.252 23.6731 10.7589 25.714C10.6216 26.2846 10.1108 26.6875 9.52363 26.6875H3.8125C3.47319 26.6875 3.15294 26.8197 2.91275 27.0599C2.67383 27.2975 2.54167 27.6165 2.54167 27.9571V33.0404C2.54167 33.7419 3.11227 34.3112 3.8125 34.3112H9.52235C10.1095 34.3112 10.6204 34.7128 10.7576 35.2847C11.252 37.3282 12.0589 39.2764 13.1582 41.0733C13.4645 41.574 13.3882 42.2184 12.9727 42.6352L8.93269 46.6764C8.69631 46.9141 8.56033 47.2407 8.56033 47.5749C8.56033 47.9091 8.69631 48.237 8.93269 48.4734L12.5279 52.0673C13.007 52.5464 13.8457 52.5464 14.3261 52.0673L18.3648 48.0273C18.6088 47.7808 18.9329 47.6537 19.262 47.6537Z" fill="#F9F9F9"/>
<path d="M30.5 43.2083C23.4926 43.2083 17.7916 37.5073 17.7916 30.5C17.7916 23.4926 23.4926 17.7916 30.5 17.7916C37.5073 17.7916 43.2083 23.4926 43.2083 30.5C43.2083 37.5073 37.5086 43.2083 30.5 43.2083ZM30.5 20.3333C24.8943 20.3333 20.3333 24.8943 20.3333 30.5C20.3333 36.1056 24.8943 40.6666 30.5 40.6666C36.1056 40.6666 40.6666 36.1056 40.6666 30.5C40.6666 24.8943 36.1069 20.3333 30.5 20.3333Z" fill="#F9F9F9"/>
</g>
<defs>
<clipPath id="clip0_388_3149">
<rect width="61" height="61" fill="white"/>
</clipPath>
</defs>
</svg>
