<svg width="28" height="29" viewBox="0 0 28 29" fill="none" xmlns="http://www.w3.org/2000/svg">
<path fill-rule="evenodd" clip-rule="evenodd" d="M17.7472 15.9149C17.9858 15.3742 18.1191 14.7724 18.1191 14.5016C18.1191 12.1544 16.2955 10.2513 14.0463 10.2513C11.7972 10.2513 9.97363 12.1544 9.97363 14.5016C9.97363 16.8487 12.01 18.3886 14.0463 18.3886C15.3489 18.3886 16.5083 17.7515 17.252 16.7595C17.4469 16.5001 17.614 16.2168 17.7472 15.9149ZM14.0463 16.2635C14.5554 16.2635 15.0208 16.0684 15.3787 15.7457C15.8103 15.3566 16.0003 14.7807 16.0003 14.5016C16.0003 13.328 15.1719 12.3764 14.0463 12.3764C12.9208 12.3764 12.0003 13.3264 12.0003 14.5C12.0003 15.3104 12.9208 16.2635 14.0463 16.2635Z" fill="#F9F9F9" fill-opacity="0.5"/>
<path fill-rule="evenodd" clip-rule="evenodd" d="M1.09212 15.2724C1.07621 15.2527 1.10803 15.2931 1.09212 15.2724C0.96764 15.1021 0.970773 14.8996 1.09268 14.7273C1.10161 14.7147 1.11071 14.7016 1.11993 14.6882C4.781 9.34319 9.32105 6.5 14.0142 6.5C18.7025 6.5 23.2385 9.33554 26.8956 14.6698C26.965 14.771 27 14.875 27 14.9995C27 15.1301 26.9593 15.2399 26.8863 15.3461C23.2302 20.6702 18.6982 23.5 14.0142 23.5C9.30912 23.5 4.75717 20.6433 1.09212 15.2724ZM3.93909 14.3525C3.6381 14.7267 3.6381 15.2722 3.93908 15.6465C7.07417 19.5443 10.6042 21.3749 14.0142 21.3749C17.4243 21.3749 20.9543 19.5443 24.0894 15.6465C24.3904 15.2722 24.3904 14.7267 24.0894 14.3525C20.9543 10.4548 17.4243 8.62513 14.0142 8.62513C10.6042 8.62513 7.07417 10.4548 3.93909 14.3525Z" fill="#F9F9F9" fill-opacity="0.5"/>
</svg>
