<svg width="16" height="19" viewBox="0 0 16 19" fill="none" xmlns="http://www.w3.org/2000/svg">
<g clip-path="url(#clip0_997_9997)">
<path d="M14.8198 6.79997C14.6798 6.79997 14.5598 6.91997 14.5598 7.05997V13.26L7.58984 17.89L0.619844 13.26V2.01997L1.03984 1.85997C5.25984 0.209971 9.90984 0.209971 14.1398 1.85997L14.7298 2.08997C14.8598 2.13997 15.0198 2.07997 15.0698 1.93997C15.1198 1.80997 15.0598 1.64997 14.9198 1.59997L14.3298 1.36997C9.97984 -0.330029 5.19984 -0.330029 0.849844 1.36997L0.259844 1.59997C0.159844 1.63997 0.0898438 1.73997 0.0898438 1.83997V13.39C0.0898438 13.48 0.129844 13.56 0.209844 13.61L7.43984 18.41C7.43984 18.41 7.52984 18.45 7.58984 18.45C7.64984 18.45 7.68984 18.44 7.72984 18.41L14.9598 13.61C15.0298 13.56 15.0798 13.48 15.0798 13.39V7.04997C15.0798 6.90997 14.9598 6.78997 14.8198 6.78997V6.79997Z" fill="#F9F9F9" fill-opacity="0.25"/>
<path d="M7.59 18.5601C7.52 18.5601 7.45 18.5401 7.39 18.5001L0.16 13.7001C0.06 13.6301 0 13.5201 0 13.4001V1.85006C0 1.70006 0.09 1.57006 0.23 1.51006L0.82 1.28006C5.18 -0.429941 9.99 -0.429941 14.36 1.28006L14.95 1.51006C15.14 1.58006 15.23 1.79006 15.15 1.98006C15.08 2.16006 14.87 2.26006 14.68 2.18006L14.09 1.95006C9.9 0.310059 5.28 0.310059 1.08 1.95006L0.72 2.09006V13.2001L7.59 17.7601L14.46 13.2001V7.06006C14.46 6.86006 14.62 6.70006 14.82 6.70006C15.02 6.70006 15.18 6.86006 15.18 7.06006V13.4001C15.18 13.5201 15.12 13.6301 15.02 13.7001L7.79 18.5001C7.73 18.5401 7.66 18.5601 7.59 18.5601ZM7.59 0.200059C5.32 0.200059 3.05 0.620059 0.89 1.46006L0.3 1.69006C0.24 1.71006 0.2 1.77006 0.2 1.84006V13.3901C0.2 13.4501 0.23 13.5001 0.27 13.5301L7.5 18.3301C7.55 18.3701 7.63 18.3701 7.68 18.3301L14.91 13.5301C14.91 13.5301 14.98 13.4501 14.98 13.3901V7.05006C14.98 6.96006 14.91 6.89006 14.82 6.89006C14.73 6.89006 14.66 6.96006 14.66 7.05006V13.2501C14.66 13.2501 14.64 13.3101 14.62 13.3301L7.65 17.9601C7.65 17.9601 7.57 17.9801 7.54 17.9601L0.57 13.3401C0.57 13.3401 0.53 13.2901 0.53 13.2601V2.02006C0.53 2.02006 0.55 1.94006 0.59 1.93006L1.01 1.77006C5.25 0.110059 9.93 0.110059 14.17 1.77006L14.76 2.00006C14.84 2.03006 14.94 2.00006 14.97 1.91006C15 1.83006 14.97 1.73006 14.88 1.70006L14.29 1.47006C12.13 0.620059 9.86 0.200059 7.59 0.200059Z" fill="#F9F9F9" fill-opacity="0.25"/>
<path d="M7.89988 10.8402V3.42016C7.89988 3.28016 7.77988 3.16016 7.63988 3.16016C7.49988 3.16016 7.37988 3.28016 7.37988 3.42016V10.8502C7.37988 10.9902 7.49988 11.1102 7.63988 11.1102C7.77988 11.1102 7.89988 10.9902 7.89988 10.8502V10.8402Z" fill="#F9F9F9" fill-opacity="0.25"/>
<path d="M7.62953 11.2001C7.42953 11.2001 7.26953 11.0401 7.26953 10.8401V3.42006C7.26953 3.22006 7.42953 3.06006 7.62953 3.06006C7.82953 3.06006 7.98953 3.22006 7.98953 3.42006V10.8501C7.98953 11.0501 7.82953 11.2101 7.62953 11.2101V11.2001ZM7.62953 3.25006C7.53953 3.25006 7.46953 3.32006 7.46953 3.41006V10.8401C7.46953 10.9301 7.53953 11.0001 7.62953 11.0001C7.71953 11.0001 7.78953 10.9301 7.78953 10.8401V3.42006C7.78953 3.33006 7.71953 3.26006 7.62953 3.26006V3.25006Z" fill="#F9F9F9" fill-opacity="0.25"/>
<path d="M6.59082 13.1201C6.59082 13.7001 7.06082 14.1701 7.64082 14.1701C8.22082 14.1701 8.69082 13.7001 8.69082 13.1201C8.69082 12.5401 8.22082 12.0701 7.64082 12.0701C7.06082 12.0701 6.59082 12.5401 6.59082 13.1201ZM7.63082 12.5901C7.92082 12.5901 8.15082 12.8301 8.15082 13.1101C8.15082 13.3901 7.91082 13.6301 7.63082 13.6301C7.35082 13.6301 7.11082 13.3901 7.11082 13.1101C7.11082 12.8301 7.35082 12.5901 7.63082 12.5901Z" fill="#F9F9F9" fill-opacity="0.25"/>
<path d="M7.63047 14.26C7.00047 14.26 6.48047 13.75 6.48047 13.11C6.48047 12.47 6.99047 11.96 7.63047 11.96C8.27047 11.96 8.78047 12.47 8.78047 13.11C8.78047 13.75 8.27047 14.26 7.63047 14.26ZM7.63047 12.17C7.11047 12.17 6.68047 12.6 6.68047 13.12C6.68047 13.64 7.11047 14.07 7.63047 14.07C8.15047 14.07 8.58047 13.64 8.58047 13.12C8.58047 12.6 8.15047 12.17 7.63047 12.17ZM7.63047 13.74C7.29047 13.74 7.01047 13.46 7.01047 13.12C7.01047 12.78 7.29047 12.5 7.63047 12.5C7.97047 12.5 8.25047 12.78 8.25047 13.12C8.25047 13.46 7.97047 13.74 7.63047 13.74ZM7.63047 12.69C7.40047 12.69 7.20047 12.88 7.20047 13.12C7.20047 13.36 7.39047 13.55 7.63047 13.55C7.87047 13.55 8.06047 13.36 8.06047 13.12C8.06047 12.88 7.87047 12.69 7.63047 12.69Z" fill="#F9F9F9" fill-opacity="0.25"/>
</g>
<defs>
<clipPath id="clip0_997_9997">
<rect width="15.18" height="18.56" fill="white"/>
</clipPath>
</defs>
</svg>
