<svg width="32" height="32" viewBox="0 0 32 32" fill="none" xmlns="http://www.w3.org/2000/svg">
<path d="M18 29.0001C17.7961 28.9996 17.5972 28.9368 17.43 28.8201L7.43 21.8201C7.29753 21.7282 7.18925 21.6056 7.11438 21.4629C7.03951 21.3201 7.00027 21.1613 7 21.0001V11.0001C7.00027 10.8389 7.03951 10.6801 7.11438 10.5373C7.18925 10.3946 7.29753 10.272 7.43 10.1801L17.43 3.1801C17.5758 3.08145 17.745 3.02303 17.9206 3.01074C18.0962 2.99845 18.2719 3.03272 18.43 3.1101C18.5987 3.1904 18.7414 3.31634 18.8422 3.47364C18.9429 3.63094 18.9976 3.81332 19 4.0001V28.0001C19.0004 28.1837 18.9502 28.3639 18.8549 28.5209C18.7597 28.6779 18.623 28.8056 18.46 28.8901C18.3177 28.963 18.1599 29.0007 18 29.0001ZM9 20.4801L17 26.0801V5.9201L9 11.5201V20.4801Z" fill="#F6F6F6"/>
<path d="M8 22H4C3.20435 22 2.44129 21.6839 1.87868 21.1213C1.31607 20.5587 1 19.7956 1 19V13C1 12.2044 1.31607 11.4413 1.87868 10.8787C2.44129 10.3161 3.20435 10 4 10H8C8.26522 10 8.51957 10.1054 8.70711 10.2929C8.89464 10.4804 9 10.7348 9 11V21C9 21.2652 8.89464 21.5196 8.70711 21.7071C8.51957 21.8946 8.26522 22 8 22ZM4 12C3.73478 12 3.48043 12.1054 3.29289 12.2929C3.10536 12.4804 3 12.7348 3 13V19C3 19.2652 3.10536 19.5196 3.29289 19.7071C3.48043 19.8946 3.73478 20 4 20H7V12H4Z" fill="#F6F6F6"/>
<path d="M22.2233 11.0489L20.8091 12.4631L29.2944 20.9484L30.7086 19.5342L22.2233 11.0489Z" fill="#F6F6F6"/>
<path d="M29.2944 11.0489L20.8091 19.5342L22.2233 20.9484L30.7086 12.4631L29.2944 11.0489Z" fill="#F6F6F6"/>
</svg>
